<mxfile host="app.diagrams.net" modified="2024-05-17T08:14:53.947Z" agent="Mozilla/5.0 (Windows NT 10.0; Win64; x64) AppleWebKit/537.36 (KHTML, like Gecko) Chrome/124.0.0.0 Safari/537.36" etag="oH7a2bAFUe7zYNIwqSYc" version="24.4.3" type="device">
  <diagram name="Страница — 1" id="kwGLQwKXR2LikKlBl0D-">
    <mxGraphModel dx="1050" dy="565" grid="0" gridSize="10" guides="1" tooltips="1" connect="1" arrows="1" fold="1" page="1" pageScale="1" pageWidth="827" pageHeight="1169" math="0" shadow="0">
      <root>
        <mxCell id="0" />
        <mxCell id="1" parent="0" />
        <mxCell id="F0OeNhtC6mhzqRGsz-H8-2" value="" style="rounded=0;whiteSpace=wrap;html=1;" vertex="1" parent="1">
          <mxGeometry x="180" y="77" width="532" height="623" as="geometry" />
        </mxCell>
        <mxCell id="F0OeNhtC6mhzqRGsz-H8-3" value="&lt;font style=&quot;font-size: 15px;&quot;&gt;&lt;b&gt;Приложение&lt;/b&gt;&lt;/font&gt;&lt;div style=&quot;font-size: 15px;&quot;&gt;&lt;font style=&quot;font-size: 15px;&quot;&gt;&lt;b&gt;ProDel&lt;/b&gt;&lt;/font&gt;&lt;/div&gt;" style="text;html=1;align=center;verticalAlign=middle;whiteSpace=wrap;rounded=0;" vertex="1" parent="1">
          <mxGeometry x="361" y="99" width="130" height="43" as="geometry" />
        </mxCell>
        <mxCell id="F0OeNhtC6mhzqRGsz-H8-4" value="Незарегистрированный&lt;div&gt;пользователь&lt;/div&gt;" style="shape=umlActor;verticalLabelPosition=bottom;verticalAlign=top;html=1;outlineConnect=0;" vertex="1" parent="1">
          <mxGeometry x="91" y="222" width="30" height="60" as="geometry" />
        </mxCell>
        <mxCell id="F0OeNhtC6mhzqRGsz-H8-6" value="Пользователь" style="shape=umlActor;verticalLabelPosition=bottom;verticalAlign=top;html=1;outlineConnect=0;" vertex="1" parent="1">
          <mxGeometry x="91" y="492" width="30" height="60" as="geometry" />
        </mxCell>
        <mxCell id="F0OeNhtC6mhzqRGsz-H8-7" value="Курьер" style="shape=umlActor;verticalLabelPosition=bottom;verticalAlign=top;html=1;outlineConnect=0;" vertex="1" parent="1">
          <mxGeometry x="761" y="225" width="30" height="60" as="geometry" />
        </mxCell>
        <mxCell id="F0OeNhtC6mhzqRGsz-H8-8" value="Админимстратор" style="shape=umlActor;verticalLabelPosition=bottom;verticalAlign=top;html=1;outlineConnect=0;" vertex="1" parent="1">
          <mxGeometry x="761" y="492" width="30" height="60" as="geometry" />
        </mxCell>
        <mxCell id="F0OeNhtC6mhzqRGsz-H8-10" value="Ознакомиться с&lt;div&gt;информацией о&lt;/div&gt;&lt;div&gt;сервисе&lt;/div&gt;" style="ellipse;whiteSpace=wrap;html=1;" vertex="1" parent="1">
          <mxGeometry x="243.5" y="183" width="120" height="66" as="geometry" />
        </mxCell>
        <mxCell id="F0OeNhtC6mhzqRGsz-H8-11" value="Зарегистрироваться" style="ellipse;whiteSpace=wrap;html=1;" vertex="1" parent="1">
          <mxGeometry x="241" y="274" width="125" height="46" as="geometry" />
        </mxCell>
        <mxCell id="F0OeNhtC6mhzqRGsz-H8-14" value="" style="endArrow=classic;html=1;rounded=0;exitX=0.5;exitY=0.5;exitDx=0;exitDy=0;exitPerimeter=0;entryX=0;entryY=0.5;entryDx=0;entryDy=0;" edge="1" parent="1" source="F0OeNhtC6mhzqRGsz-H8-4" target="F0OeNhtC6mhzqRGsz-H8-11">
          <mxGeometry width="50" height="50" relative="1" as="geometry">
            <mxPoint x="387" y="354" as="sourcePoint" />
            <mxPoint x="437" y="304" as="targetPoint" />
          </mxGeometry>
        </mxCell>
        <mxCell id="F0OeNhtC6mhzqRGsz-H8-15" value="" style="endArrow=classic;html=1;rounded=0;exitX=0.5;exitY=0.5;exitDx=0;exitDy=0;exitPerimeter=0;entryX=0;entryY=0.5;entryDx=0;entryDy=0;" edge="1" parent="1" source="F0OeNhtC6mhzqRGsz-H8-4" target="F0OeNhtC6mhzqRGsz-H8-10">
          <mxGeometry width="50" height="50" relative="1" as="geometry">
            <mxPoint x="387" y="354" as="sourcePoint" />
            <mxPoint x="437" y="304" as="targetPoint" />
          </mxGeometry>
        </mxCell>
        <mxCell id="F0OeNhtC6mhzqRGsz-H8-16" value="Посмотреть&amp;nbsp;&lt;div&gt;список&lt;div&gt;заказов&lt;/div&gt;&lt;/div&gt;" style="ellipse;whiteSpace=wrap;html=1;" vertex="1" parent="1">
          <mxGeometry x="567" y="226" width="120" height="59" as="geometry" />
        </mxCell>
        <mxCell id="F0OeNhtC6mhzqRGsz-H8-21" value="" style="endArrow=classic;html=1;rounded=0;exitX=0.5;exitY=0.5;exitDx=0;exitDy=0;exitPerimeter=0;entryX=1;entryY=0.5;entryDx=0;entryDy=0;" edge="1" parent="1" source="F0OeNhtC6mhzqRGsz-H8-7" target="F0OeNhtC6mhzqRGsz-H8-16">
          <mxGeometry width="50" height="50" relative="1" as="geometry">
            <mxPoint x="387" y="354" as="sourcePoint" />
            <mxPoint x="437" y="304" as="targetPoint" />
          </mxGeometry>
        </mxCell>
        <mxCell id="F0OeNhtC6mhzqRGsz-H8-24" value="Авторизация" style="ellipse;whiteSpace=wrap;html=1;" vertex="1" parent="1">
          <mxGeometry x="243.5" y="450" width="120" height="53" as="geometry" />
        </mxCell>
        <mxCell id="F0OeNhtC6mhzqRGsz-H8-25" value="Посмотреть&amp;nbsp;&lt;div&gt;список&lt;div&gt;заказов&lt;/div&gt;&lt;/div&gt;" style="ellipse;whiteSpace=wrap;html=1;" vertex="1" parent="1">
          <mxGeometry x="243.5" y="534" width="120" height="53" as="geometry" />
        </mxCell>
        <mxCell id="F0OeNhtC6mhzqRGsz-H8-26" value="Создать заказ" style="ellipse;whiteSpace=wrap;html=1;" vertex="1" parent="1">
          <mxGeometry x="395" y="450" width="120" height="42" as="geometry" />
        </mxCell>
        <mxCell id="F0OeNhtC6mhzqRGsz-H8-27" value="Посмотреть статус&lt;div&gt;заказа&lt;/div&gt;" style="ellipse;whiteSpace=wrap;html=1;" vertex="1" parent="1">
          <mxGeometry x="395" y="585" width="120" height="43" as="geometry" />
        </mxCell>
        <mxCell id="F0OeNhtC6mhzqRGsz-H8-28" value="" style="endArrow=classic;html=1;rounded=0;exitX=0;exitY=0.5;exitDx=0;exitDy=0;entryX=1;entryY=0.5;entryDx=0;entryDy=0;dashed=1;" edge="1" parent="1" source="F0OeNhtC6mhzqRGsz-H8-26" target="F0OeNhtC6mhzqRGsz-H8-25">
          <mxGeometry width="50" height="50" relative="1" as="geometry">
            <mxPoint x="387" y="454" as="sourcePoint" />
            <mxPoint x="437" y="404" as="targetPoint" />
          </mxGeometry>
        </mxCell>
        <mxCell id="F0OeNhtC6mhzqRGsz-H8-30" value="Extends" style="edgeLabel;html=1;align=center;verticalAlign=middle;resizable=0;points=[];" vertex="1" connectable="0" parent="F0OeNhtC6mhzqRGsz-H8-28">
          <mxGeometry x="-0.0702" y="-4" relative="1" as="geometry">
            <mxPoint y="1" as="offset" />
          </mxGeometry>
        </mxCell>
        <mxCell id="F0OeNhtC6mhzqRGsz-H8-29" value="" style="endArrow=classic;html=1;rounded=0;exitX=0;exitY=0.5;exitDx=0;exitDy=0;entryX=1;entryY=0.5;entryDx=0;entryDy=0;strokeColor=default;dashed=1;" edge="1" parent="1" source="F0OeNhtC6mhzqRGsz-H8-27" target="F0OeNhtC6mhzqRGsz-H8-25">
          <mxGeometry width="50" height="50" relative="1" as="geometry">
            <mxPoint x="387" y="454" as="sourcePoint" />
            <mxPoint x="437" y="404" as="targetPoint" />
          </mxGeometry>
        </mxCell>
        <mxCell id="F0OeNhtC6mhzqRGsz-H8-31" value="Extends" style="edgeLabel;html=1;align=center;verticalAlign=middle;resizable=0;points=[];" vertex="1" connectable="0" parent="F0OeNhtC6mhzqRGsz-H8-29">
          <mxGeometry x="0.025" relative="1" as="geometry">
            <mxPoint as="offset" />
          </mxGeometry>
        </mxCell>
        <mxCell id="F0OeNhtC6mhzqRGsz-H8-32" value="" style="endArrow=classic;html=1;rounded=0;exitX=0.5;exitY=0.5;exitDx=0;exitDy=0;exitPerimeter=0;entryX=0;entryY=0.5;entryDx=0;entryDy=0;" edge="1" parent="1" source="F0OeNhtC6mhzqRGsz-H8-6" target="F0OeNhtC6mhzqRGsz-H8-24">
          <mxGeometry width="50" height="50" relative="1" as="geometry">
            <mxPoint x="387" y="454" as="sourcePoint" />
            <mxPoint x="437" y="404" as="targetPoint" />
          </mxGeometry>
        </mxCell>
        <mxCell id="F0OeNhtC6mhzqRGsz-H8-33" value="" style="endArrow=classic;html=1;rounded=0;exitX=0.5;exitY=0.5;exitDx=0;exitDy=0;exitPerimeter=0;entryX=0;entryY=0.5;entryDx=0;entryDy=0;" edge="1" parent="1" source="F0OeNhtC6mhzqRGsz-H8-6" target="F0OeNhtC6mhzqRGsz-H8-25">
          <mxGeometry width="50" height="50" relative="1" as="geometry">
            <mxPoint x="387" y="454" as="sourcePoint" />
            <mxPoint x="437" y="404" as="targetPoint" />
          </mxGeometry>
        </mxCell>
        <mxCell id="F0OeNhtC6mhzqRGsz-H8-34" value="Изменить роль&lt;div&gt;пользователя&lt;/div&gt;" style="ellipse;whiteSpace=wrap;html=1;" vertex="1" parent="1">
          <mxGeometry x="491" y="512" width="120" height="54" as="geometry" />
        </mxCell>
        <mxCell id="F0OeNhtC6mhzqRGsz-H8-35" value="" style="endArrow=classic;html=1;rounded=0;exitX=0.5;exitY=0.5;exitDx=0;exitDy=0;exitPerimeter=0;entryX=1;entryY=0.5;entryDx=0;entryDy=0;" edge="1" parent="1" source="F0OeNhtC6mhzqRGsz-H8-8" target="F0OeNhtC6mhzqRGsz-H8-34">
          <mxGeometry width="50" height="50" relative="1" as="geometry">
            <mxPoint x="387" y="454" as="sourcePoint" />
            <mxPoint x="437" y="404" as="targetPoint" />
          </mxGeometry>
        </mxCell>
        <mxCell id="F0OeNhtC6mhzqRGsz-H8-36" value="Взять заказ" style="ellipse;whiteSpace=wrap;html=1;" vertex="1" parent="1">
          <mxGeometry x="386" y="225" width="120" height="60" as="geometry" />
        </mxCell>
        <mxCell id="F0OeNhtC6mhzqRGsz-H8-37" value="Завершить заказ" style="ellipse;whiteSpace=wrap;html=1;" vertex="1" parent="1">
          <mxGeometry x="386" y="324" width="120" height="60" as="geometry" />
        </mxCell>
        <mxCell id="F0OeNhtC6mhzqRGsz-H8-38" value="" style="endArrow=classic;html=1;rounded=0;exitX=1;exitY=0.5;exitDx=0;exitDy=0;entryX=0;entryY=0.5;entryDx=0;entryDy=0;dashed=1;" edge="1" parent="1" source="F0OeNhtC6mhzqRGsz-H8-36" target="F0OeNhtC6mhzqRGsz-H8-16">
          <mxGeometry width="50" height="50" relative="1" as="geometry">
            <mxPoint x="387" y="454" as="sourcePoint" />
            <mxPoint x="437" y="404" as="targetPoint" />
          </mxGeometry>
        </mxCell>
        <mxCell id="F0OeNhtC6mhzqRGsz-H8-39" value="Extends" style="edgeLabel;html=1;align=center;verticalAlign=middle;resizable=0;points=[];" vertex="1" connectable="0" parent="F0OeNhtC6mhzqRGsz-H8-38">
          <mxGeometry x="-0.2191" y="-2" relative="1" as="geometry">
            <mxPoint as="offset" />
          </mxGeometry>
        </mxCell>
        <mxCell id="F0OeNhtC6mhzqRGsz-H8-40" value="" style="endArrow=classic;html=1;rounded=0;exitX=0.5;exitY=0;exitDx=0;exitDy=0;entryX=0.5;entryY=1;entryDx=0;entryDy=0;dashed=1;" edge="1" parent="1" source="F0OeNhtC6mhzqRGsz-H8-37" target="F0OeNhtC6mhzqRGsz-H8-36">
          <mxGeometry width="50" height="50" relative="1" as="geometry">
            <mxPoint x="387" y="454" as="sourcePoint" />
            <mxPoint x="437" y="404" as="targetPoint" />
          </mxGeometry>
        </mxCell>
        <mxCell id="F0OeNhtC6mhzqRGsz-H8-41" value="Extends" style="edgeLabel;html=1;align=center;verticalAlign=middle;resizable=0;points=[];" vertex="1" connectable="0" parent="F0OeNhtC6mhzqRGsz-H8-40">
          <mxGeometry x="-0.1385" y="-1" relative="1" as="geometry">
            <mxPoint as="offset" />
          </mxGeometry>
        </mxCell>
      </root>
    </mxGraphModel>
  </diagram>
</mxfile>
